<svg width="69" height="73" viewBox="0 0 69 73" fill="none" xmlns="http://www.w3.org/2000/svg">
<path d="M45.3429 20.6265L68.7398 20.5852L52.9903 40.179L58.9016 64.4853L33.5618 52.3735L5.32853 72.05L13.968 41.5845L0.161377 20.7919L24.8397 20.6679L36.6208 0.950012L45.3429 20.6265Z" fill="#FFDD00"/>
<path d="M36.4141 4.46368L44.2681 22.28L65.3501 22.2387L51.2128 39.807L56.5453 61.5504L33.4378 50.472L8.13942 68.123L15.7041 41.2951L3.17896 22.404L25.7904 22.28L36.4141 4.46368Z" fill="#FDC300"/>
<path d="M31.4537 41.3365C31.371 41.8325 31.2057 42.3285 30.999 42.8246C29.9656 45.0981 27.8987 46.5863 25.4598 47.041C23.5997 47.3717 21.8222 46.9583 20.2927 45.8835C20.334 46.0076 20.334 46.1729 20.3754 46.2969C20.458 46.7516 20.5407 47.2063 20.6234 47.661C16.9857 48.4465 13.3894 49.1905 9.75169 49.9759C8.55291 43.8167 7.35413 37.6574 6.11401 31.4982C8.55291 30.9195 10.9505 30.3821 13.3894 29.8034C13.8854 32.3663 14.4228 34.9292 14.9188 37.5334L15.9109 42.7419L17.4404 42.4939C17.3164 42.1219 17.1097 40.9231 16.9857 40.3444C16.531 38.2775 16.8617 35.8799 18.1431 34.1438C19.3006 32.573 20.7887 31.8702 22.6076 31.4569C24.1784 31.1262 25.6665 31.2915 27.1133 31.9116C27.568 32.1183 27.9401 32.3249 28.3121 32.573L28.1881 31.9942L27.9401 30.5888L29.1802 30.3821L28.8081 28.1085C31.123 27.0338 33.2726 25.959 35.5874 24.8842L36.0008 27.0338L43.4002 23.2721L44.1442 27.2405L45.7564 26.9511C45.8804 27.6952 46.0458 28.6459 46.1698 29.39C46.2524 29.2247 46.5005 28.7286 46.5831 28.5633C48.0299 26.6617 50.2622 25.5456 52.6597 25.587C54.8092 25.6283 56.5454 26.4137 57.9922 28.1912C59.3977 29.9687 60.1004 32.2009 60.0177 34.5985C59.9764 36.2933 59.315 37.7815 58.3229 38.9802C57.2895 40.2204 55.6773 41.0471 54.0652 41.3365C52.6597 41.5845 51.4609 41.5431 50.2208 41.0884C50.0141 41.0058 49.6421 40.8404 49.4354 40.7577C49.2701 40.8817 48.9807 41.1298 48.8153 41.2951C48.1126 41.8738 47.5752 42.2459 46.9138 42.5352C45.6737 43.114 44.3923 43.2793 43.0281 42.9899C42.4908 42.9073 42.036 42.7419 41.5813 42.4526C41.2093 42.8246 40.9199 43.0313 40.5479 43.3206C40.0519 43.6927 39.5558 43.982 39.0184 44.1887C38.481 44.3954 37.985 44.5608 37.4476 44.6434C35.0914 45.0155 33.2312 44.2714 31.9084 42.3699C31.7431 42.0805 31.5777 41.7912 31.4124 41.5431C31.4951 41.4191 31.4537 41.3778 31.4537 41.3365Z" fill="#0095DB"/>
<path d="M47.0379 34.7638C46.5831 32.9036 46.6658 30.8781 47.8233 29.3486C48.774 28.0672 50.0141 27.5298 51.4609 27.2404C52.7011 26.9924 53.9412 27.0751 55.1399 27.6125C57.1655 28.5219 58.0749 30.5061 58.5296 32.5316C58.8603 34.0197 58.819 35.4666 58.2816 36.624C57.4962 38.3602 55.9254 39.6416 53.7758 40.0136C52.205 40.303 50.7995 39.8896 49.6008 39.0216C48.154 37.9054 47.4512 36.4173 47.0379 34.7638ZM10.8678 48.2398L7.80884 32.5316L12.2733 31.4982L14.7948 44.3127C15.9936 44.106 17.1924 43.858 18.3912 43.6513L18.9285 46.5449L10.8678 48.2398ZM18.4738 40.3857C18.0191 38.5255 18.1018 36.5 19.2592 34.9705C20.21 33.6891 21.4501 33.1517 22.8969 32.8623C24.137 32.6143 25.3772 32.697 26.5759 33.2343C28.6015 34.1438 29.5109 36.1279 29.9656 38.1535C30.2963 39.6416 30.2549 41.0884 29.7176 42.2872C28.9322 44.0234 27.3613 45.3048 25.2118 45.6768C23.641 45.9662 22.2355 45.5528 21.0367 44.6848C19.5899 43.5273 18.8872 42.0392 18.4738 40.3857ZM22.7316 36.0866C22.4422 36.624 22.4835 37.2441 22.5249 37.9468C22.5662 38.2775 22.6489 38.6082 22.6902 38.9389C22.7316 39.2696 22.8142 39.5589 22.8556 39.8896C22.9383 40.303 23.0209 40.7991 23.1863 41.2124C23.4756 41.9565 23.9717 42.9072 24.9224 42.7006C25.4185 42.6179 25.7492 42.2459 25.8732 41.7085C26.0385 40.9644 25.8319 40.1377 25.7492 39.3936C25.7079 39.0629 25.6252 38.7322 25.5425 38.3602C25.2945 37.3267 24.9224 36.1279 24.3024 35.6732C24.013 35.4252 23.765 35.4666 23.5583 35.5079C23.1863 35.5079 22.9383 35.6732 22.7316 36.0866ZM29.8002 31.4982L30.9577 31.2502L30.503 28.8113L34.7194 26.7857L35.3394 30.3821L36.7862 30.0927L37.3236 33.069L35.8768 33.3584L36.7449 37.9468C36.8276 38.3602 36.9102 38.7322 37.0342 39.1042C37.1583 39.5176 37.4063 39.8896 37.861 39.9723C38.1917 40.055 38.5224 39.8896 38.9358 39.6003L39.4731 42.2459C38.6877 42.7006 38.1504 42.9486 37.4476 43.1139C36.2488 43.362 35.1327 43.1966 34.2647 42.6179C33.1072 41.8325 32.7352 40.675 32.4872 39.4349L31.5777 34.1851L30.379 34.3918L29.8002 31.4982ZM37.737 29.9274L38.8944 29.6793L38.3984 27.1991L42.6148 25.1736L43.2762 28.8526L44.7643 28.5632L45.3017 31.5395L43.8549 31.8289L44.6816 36.3346C44.7643 36.748 44.847 37.12 44.971 37.4921C45.095 37.9054 45.343 38.2775 45.7977 38.3602C46.1284 38.4428 46.4591 38.2775 46.8725 37.9881L47.4099 40.6337C46.6245 41.0884 46.0871 41.3364 45.3844 41.5018C44.1856 41.7498 43.0695 41.5845 42.2014 41.0057C41.044 40.2203 40.6719 39.0629 40.4239 37.8228L39.4731 32.697L38.2744 32.9036L37.737 29.9274ZM51.2956 30.4647C51.0062 31.0021 51.0476 31.6222 51.0889 32.3249C51.1302 32.6556 51.2129 32.9863 51.2542 33.317C51.2956 33.6477 51.3783 33.9371 51.4196 34.2678C51.5023 34.6811 51.5849 35.1772 51.7503 35.5906C52.0397 36.3346 52.5357 37.2441 53.4865 37.0787C53.9825 36.996 54.3132 36.624 54.4372 36.0866C54.6026 35.3425 54.3959 34.5158 54.3132 33.7717C54.2719 33.441 54.1892 33.1103 54.1065 32.7383C53.8585 31.7049 53.4865 30.5061 52.8664 30.0514C52.577 29.8034 52.329 29.8447 52.1223 29.886C51.7916 29.886 51.5023 30.0514 51.2956 30.4647Z" fill="white"/>
</svg>
