<svg width="68" height="60" viewBox="0 0 68 60" fill="none" xmlns="http://www.w3.org/2000/svg">
<path fill-rule="evenodd" clip-rule="evenodd" d="M61.0489 9.49489C61.6626 8.12301 63.2872 7.54537 64.6591 8.15911C66.031 8.80895 66.6448 10.4336 65.9949 11.7693C65.3812 13.1412 63.7566 13.7189 62.3847 13.1051C61.0489 12.4553 60.4352 10.8307 61.0489 9.49489ZM25.055 12.5275C25.9936 12.9607 26.8962 13.5022 27.6904 14.116L27.3294 0L32.8891 11.7332C32.9614 11.5888 33.0336 11.4083 33.1058 11.2639C35.308 6.49841 40.9399 4.44058 45.7416 6.64281C45.8499 6.67892 45.9221 6.75112 46.0304 6.78722C46.1026 6.31789 46.247 5.84857 46.4636 5.41534C47.7272 2.67157 50.9403 1.51629 53.684 2.77987C56.4278 4.04345 57.6192 7.29265 56.3556 10.0364C55.3809 12.1304 53.2508 13.3217 51.0486 13.1773C51.5179 15.1629 51.3735 17.3291 50.4348 19.3508C50.0016 20.3256 49.3879 21.192 48.7019 21.9141L67.8 20.3617L51.9511 26.5713C52.3483 26.7157 52.7815 26.8601 53.1786 27.0767C59.316 29.9288 62.0237 37.2214 59.2438 43.3588C56.4278 49.4962 49.1713 52.1678 42.9978 49.2796C42.0952 48.8825 41.301 48.3409 40.5428 47.7633L40.7594 56.2834L37.5824 49.5684C35.5607 51.9511 32.5642 53.2869 29.4955 53.323C29.5316 53.4313 29.5677 53.5035 29.5677 53.6118C30.1815 56.1751 28.593 58.7384 26.0297 59.316C23.4665 59.8936 20.9032 58.3051 20.2895 55.7419C19.8201 53.7563 20.6505 51.7706 22.2751 50.6876C18.8093 47.7633 17.4374 42.8895 19.062 38.5211C17.2569 38.485 15.4157 38.0518 13.6467 37.2575C12.4192 36.6799 11.3 35.9578 10.3252 35.0914L0.288818 35.9578L8.30352 32.8169C5.55975 28.954 4.8738 23.7914 6.96773 19.2064C7.47317 18.1233 8.0869 17.1125 8.80895 16.246C12.6358 11.5527 19.2786 9.85592 25.055 12.5275ZM7.90639 43.9364C7.65368 42.8534 8.30352 41.7342 9.42269 41.4815C10.5058 41.2288 11.6249 41.9147 11.8776 42.9978C12.1304 44.0809 11.4805 45.2 10.3613 45.4527C9.27828 45.7055 8.15911 45.0195 7.90639 43.9364Z" fill="#951B81"/>
<path d="M45.5609 45.3083C44.6223 45.561 43.6475 45.7416 42.781 45.7777C41.2286 45.886 39.4235 45.8138 38.1961 44.7307V44.7668L38.2322 45.886L37.113 45.9582C35.8855 46.0665 34.6941 46.1387 33.4667 46.247L32.2031 46.3553V45.0917C32.2031 44.6224 32.2031 44.117 32.2031 43.6476C31.9143 44.3697 31.6615 45.0556 31.3727 45.7777L31.12 46.4636L30.398 46.5358C29.7481 46.5719 29.0983 46.6441 28.4484 46.6802L27.4015 46.7524L27.1849 45.7416C27.0405 45.0195 26.896 44.2975 26.7516 43.5754C26.6072 44.3697 26.4267 45.1639 26.2823 45.9943L26.1018 46.8607L25.2353 46.9329C24.044 47.0412 22.8526 47.1134 21.6612 47.2218L20.0366 47.3662L20.3976 45.8138C20.9753 43.4671 21.5168 41.0844 22.0944 38.7377C22.636 36.5355 23.1414 34.3693 23.6829 32.1671L23.8996 31.3007L24.8021 31.2646C26.0657 31.2285 27.3293 31.1924 28.5929 31.1562L29.5676 31.1201L29.7481 32.0949C29.9286 33.0697 30.1453 34.0805 30.3258 35.0553C30.3619 35.1997 30.398 35.3441 30.398 35.4885C30.5063 35.2358 30.5785 34.9831 30.6868 34.7665C31.0839 33.7556 31.4449 32.7808 31.8421 31.77L32.1309 31.0479L32.9251 31.0118C34.1165 30.9757 35.2718 30.9396 36.4631 30.9035L37.6184 30.8674L37.6545 32.0227C37.6906 32.492 37.6906 32.9975 37.7267 33.4668L38.3766 33.4307C39.5318 33.3946 40.651 33.3585 41.8063 33.2863L42.6727 33.2502L43.7558 33.2141C44.8389 33.178 45.958 33.1419 47.0411 33.1058H47.1494C47.1494 32.131 47.1494 31.1201 47.1494 30.1454V28.9901L48.3047 28.954C49.3517 28.9179 50.3625 28.9179 51.4095 28.8818L52.6008 28.8457V30.0371C52.6008 30.3981 52.6008 30.7952 52.6008 31.1562L52.8175 31.084C53.7922 30.7952 54.8031 30.5064 55.7778 30.2176L56.7165 29.9288L57.0414 29.9649L57.0775 31.3368C57.3663 30.3981 58.3772 29.7844 59.3881 29.7844C60.5794 29.7483 61.8791 30.4703 61.9874 31.77C62.0235 32.2032 61.9152 32.5642 61.7347 32.8892H62.3485L62.3846 33.5751V33.7556C62.4929 35.2358 62.5651 36.716 62.6734 38.1962C62.7817 39.7486 62.89 41.301 62.9622 42.8534L63.0344 44.0086L61.8791 44.117C60.8683 44.1892 59.8574 44.2614 58.8104 44.3697L57.8718 44.4419C57.4386 44.6224 56.9331 44.6946 56.4999 44.7307C54.8031 44.8751 53.5034 44.2253 52.8175 43.0339C52.8175 43.2866 52.8175 43.5032 52.8175 43.7559V44.839L51.7344 44.9112C50.6152 44.9834 49.5322 45.0917 48.413 45.1639L47.6187 45.2361C46.9328 45.2361 46.7523 45.2722 45.5609 45.3083Z" fill="#951B81"/>
<path d="M33.3946 45.1639C33.3946 44.0447 33.4307 42.9256 33.4307 41.8425C33.4307 40.7594 33.4668 39.6764 33.4668 38.6294C33.4668 38.124 33.5029 37.6185 33.539 37.077H33.5029C33.2502 37.8712 33.1058 38.2684 32.9614 38.6655C32.5281 39.7486 32.0949 40.8677 31.6617 41.9869C31.2284 43.1061 30.7591 44.2613 30.3259 45.4527C29.676 45.4888 29.0262 45.561 28.3764 45.5971C28.1598 44.478 27.9431 43.3588 27.7265 42.2396C27.5099 41.1565 27.2933 40.0735 27.0767 38.9904C26.9684 38.3767 26.8962 37.8351 26.824 37.4019H26.7879C26.7157 37.8712 26.6435 38.4128 26.5352 38.9904C26.3185 40.1096 26.1019 41.2288 25.8853 42.3479C25.6687 43.5032 25.416 44.6585 25.1994 45.8137C24.008 45.922 22.8166 45.9942 21.6252 46.1026C22.2029 43.6837 22.7805 41.3371 23.322 39.0265C23.8636 36.7882 24.4051 34.5859 24.9105 32.492C26.1741 32.4559 27.4377 32.4198 28.7013 32.3837C28.8818 33.3585 29.0984 34.3693 29.2789 35.3441C29.4594 36.3549 29.676 37.3658 29.8927 38.3767C30.001 38.9904 30.0732 39.4597 30.1093 40.0735H30.1454C30.2898 39.4597 30.4342 38.9543 30.6869 38.3406C31.084 37.2936 31.4812 36.2466 31.8783 35.2358C32.2754 34.2249 32.6364 33.2502 33.0336 32.2393C34.2249 32.2032 35.3802 32.1671 36.5716 32.131C36.6438 34.1527 36.716 36.2105 36.8243 38.3045C36.8965 40.4345 37.0048 42.6367 37.077 44.8751C35.8134 44.9473 34.6221 45.0556 33.3946 45.1639Z" fill="white"/>
<path d="M59.5687 33.0336C58.7384 33.0697 58.0524 32.5643 58.0163 31.9505C57.9802 31.3368 58.6301 30.7952 59.4243 30.7591C60.2186 30.723 60.9406 31.2285 60.9767 31.8422C61.0128 32.456 60.3991 32.9975 59.5687 33.0336Z" fill="white"/>
<path d="M58.7384 43.1061C58.6662 41.5176 58.594 39.9291 58.4857 38.4128C58.4135 36.8965 58.3412 35.4163 58.269 33.9361C59.2438 33.9 60.2186 33.8639 61.1572 33.8278C61.2655 35.2719 61.3377 36.7521 61.446 38.2684C61.5543 39.7847 61.6627 41.3371 61.7349 42.9256C60.7601 42.9617 59.7492 43.0339 58.7384 43.1061Z" fill="white"/>
<path d="M56.3918 43.5032C54.4423 43.6476 53.3953 42.5646 53.3592 40.615C53.3592 39.8569 53.3231 39.1349 53.3231 38.3767C53.3231 37.6547 53.287 36.9326 53.287 36.1745C52.9621 36.1745 52.6733 36.2106 52.3484 36.2106C52.3484 35.5246 52.3123 34.8387 52.3123 34.1527C52.6011 34.1527 52.926 34.1166 53.2148 34.1166C53.2148 33.5029 53.1787 32.8892 53.1787 32.3115C54.1896 32.0227 55.1643 31.7339 56.1391 31.4451C56.1752 32.2754 56.2113 33.1419 56.2474 34.0083C56.6445 34.0083 57.0778 33.9722 57.4749 33.9722C57.511 34.6221 57.5471 35.308 57.5832 35.994C57.1861 36.0301 56.7528 36.0301 56.3557 36.0662C56.3918 36.7882 56.4279 37.5102 56.4279 38.2323C56.464 38.9543 56.5001 39.7125 56.5001 40.4345C56.5362 40.9761 56.7889 41.1927 57.2222 41.1927C57.4388 41.1927 57.6193 41.1205 57.7998 41.0122C57.8359 41.6981 57.872 42.3841 57.9081 43.1061C57.5832 43.2505 57.0778 43.431 56.3918 43.5032Z" fill="white"/>
<path d="M48.3408 43.9364C48.3408 41.5176 48.3769 39.1348 48.3769 36.8243C48.3769 34.5499 48.3769 32.3476 48.413 30.2176C49.46 30.1815 50.4709 30.1815 51.5178 30.1454C51.5539 32.2754 51.59 34.4416 51.59 36.6799C51.6261 38.9543 51.6622 41.301 51.6983 43.6837C50.5431 43.792 49.46 43.8642 48.3408 43.9364Z" fill="white"/>
<path d="M42.6728 44.6224C39.4958 44.8751 37.9434 43.8642 38.0878 41.1927C38.16 40.0735 38.2322 38.9904 38.2683 37.8713C38.3406 36.7882 38.3767 35.7412 38.4489 34.6582C39.6041 34.6221 40.7594 34.586 41.8786 34.5138C41.8425 35.5607 41.8064 36.6438 41.7703 37.7269C41.7342 38.8099 41.6981 39.9291 41.6259 41.0483C41.5898 41.8064 42.023 42.2035 42.7811 42.1674C43.0699 42.1313 43.3949 42.0591 43.6115 41.9508C43.6476 40.6511 43.6837 39.3876 43.7198 38.124C43.7559 36.8965 43.792 35.669 43.8281 34.4416C44.9473 34.4055 46.0303 34.3694 47.1134 34.3333C47.1134 35.7773 47.0773 37.2936 47.0773 38.7738C47.0773 40.2901 47.0412 41.8786 47.0412 43.4671C46.0303 44.0448 44.3335 44.5141 42.6728 44.6224Z" fill="white"/>
<path d="M27.2572 29.6039C26.2824 29.7122 25.3077 29.7483 24.4773 29.7122C22.7805 29.64 20.6505 29.3511 19.4591 27.9793C19.4591 28.0515 19.4591 28.1237 19.423 28.1959L19.3147 29.315L18.1955 29.2789C16.8598 29.2428 15.5601 29.2067 14.2243 29.1345L12.9246 29.0984L13.1412 27.7988C13.2134 27.2572 13.3217 26.7157 13.3939 26.138C12.9246 26.8962 12.4553 27.6904 11.9859 28.4486L11.6249 29.0262L10.939 28.9901C10.253 28.954 9.5671 28.954 8.88115 28.9179L7.83419 28.8818L7.76198 27.8349C7.68978 27.0767 7.65368 26.2825 7.58147 25.5243C7.25655 26.3547 6.93163 27.2211 6.60671 28.0515L6.31789 28.8457L5.48754 28.8818C4.22396 28.8457 2.99649 28.8096 1.73291 28.7735L0 28.7013L0.685943 27.1128C1.6246 24.9828 2.52716 22.8527 3.46582 20.7227C4.29617 18.7732 5.16262 16.8237 6.02908 14.8741L6.354 14.116L7.18435 14.1521C8.48403 14.2243 9.78371 14.2965 11.1195 14.3687L12.1304 14.4409L12.2026 15.4518C12.2748 16.3904 12.347 17.293 12.4192 18.2317C12.4192 18.4122 12.4553 18.5927 12.4553 18.7732C12.6358 18.4844 12.8163 18.1595 12.9968 17.8706C13.5383 16.9681 14.0799 16.1016 14.6214 15.1991L14.9824 14.5853L15.6684 14.6214C16.932 14.6936 18.1594 14.7658 19.423 14.838L20.6144 14.9102L20.5061 16.1016C20.47 16.5348 20.4339 16.932 20.3978 17.3652L21.1559 17.4013C22.4195 17.4735 23.647 17.5457 24.9106 17.6179L26.2102 17.6901L27.0406 17.7262C28.2681 17.7984 29.4594 17.8706 30.6869 17.9067H30.9757C31.084 16.9681 31.1923 16.0294 31.3007 15.0908L31.4451 14.0077L32.5642 14.0799C33.7195 14.1521 34.8748 14.2243 36.03 14.2965L37.2214 14.3687L37.1131 15.5601C37.077 15.9211 37.0409 16.246 37.0048 16.6071L37.4741 16.5348C38.6294 16.3543 39.7847 16.1738 40.94 15.9933L42.3479 15.7767L42.3118 16.6071C42.709 15.4879 43.9725 14.8741 45.2 14.9463C46.5719 15.0186 48.016 16.0294 47.9799 17.5457C47.9799 18.0511 47.7994 18.4844 47.5467 18.8454L47.9077 18.8815V20.0007C47.9077 21.3003 47.8716 22.8527 47.8355 24.4051C47.7994 25.9575 47.7994 27.5099 47.7633 29.0623V30.2537L46.5719 30.2176C45.3805 30.1815 44.1531 30.1454 42.9617 30.1093L41.7703 30.0732C41.2288 30.1815 40.6872 30.2176 40.1818 30.2176C38.0879 30.1454 36.4994 29.1706 35.9939 27.4738C35.9578 27.9071 35.9217 28.3764 35.8856 28.8096L35.7773 29.8927L34.6943 29.8566C33.4307 29.8205 32.131 29.7844 30.8674 29.7483C29.6761 29.6761 28.4486 29.6039 27.2572 29.6039Z" fill="#951B81"/>
<path d="M14.2966 28.0154C14.441 26.9323 14.6215 25.8853 14.7659 24.8384C14.9103 23.8275 15.0908 22.8166 15.2352 21.8058C15.3074 21.3365 15.3796 20.831 15.524 20.3617H15.4879C15.1269 21.0837 14.9103 21.4448 14.6937 21.7697C14.0799 22.7444 13.4662 23.7553 12.8886 24.7662C12.2748 25.777 11.625 26.824 10.9751 27.9071C10.2892 27.871 9.60326 27.871 8.91732 27.8349C8.84511 26.7518 8.77291 25.6687 8.70071 24.6218C8.6285 23.5748 8.5563 22.5278 8.48409 21.517C8.44799 20.9393 8.44799 20.4339 8.44799 20.0368H8.41189C8.26748 20.47 8.12307 20.9754 7.94256 21.4809C7.54543 22.4917 7.18441 23.5026 6.78729 24.5496C6.39016 25.5965 5.99304 26.6796 5.55981 27.7266C4.29623 27.6904 3.06875 27.6543 1.80518 27.6182C2.74383 25.416 3.68249 23.286 4.58505 21.2281C5.4515 19.2064 6.31796 17.2569 7.14831 15.3796C8.44799 15.4518 9.78377 15.524 11.0835 15.5962C11.1557 16.4987 11.2279 17.4374 11.3001 18.3761C11.3723 19.3147 11.4445 20.2895 11.5167 21.2642C11.5528 21.8419 11.5528 22.3112 11.5167 22.8888H11.5528C11.8055 22.3112 12.0221 21.878 12.3831 21.3003C12.9608 20.3617 13.5023 19.423 14.0799 18.5205C14.6215 17.6179 15.163 16.7515 15.7045 15.8489C16.9681 15.9211 18.2317 15.9933 19.4592 16.0655C19.2787 17.9428 19.1343 19.8924 18.9537 21.878C18.7732 23.8997 18.5927 25.9936 18.4122 28.1598C16.9681 28.0876 15.6323 28.0515 14.2966 28.0154Z" fill="white"/>
<path d="M43.0339 28.954C43.1061 27.3655 43.1422 25.777 43.2144 24.2607C43.2867 22.7444 43.3228 21.2642 43.395 19.8201C44.5141 19.8923 45.6694 19.9284 46.7886 20.0006C46.7525 21.4447 46.7525 22.8888 46.7164 24.4051C46.6803 25.9214 46.6803 27.4738 46.6442 29.0623C45.4528 29.0262 44.2253 28.9901 43.0339 28.954Z" fill="white"/>
<path d="M45.0916 18.8093C44.1168 18.7732 43.3587 18.0872 43.3948 17.3652C43.4309 16.6431 44.2251 16.1016 45.1638 16.1738C46.1025 16.246 46.8606 16.8598 46.8606 17.5818C46.8245 18.3039 46.0664 18.8454 45.0916 18.8093Z" fill="white"/>
<path d="M40.254 29.0262C37.9796 28.954 36.8965 27.7266 37.0409 25.8131C37.1131 25.055 37.1492 24.3329 37.2214 23.6109C37.2936 22.8888 37.3297 22.1668 37.4019 21.4809C37.0409 21.4809 36.6799 21.4448 36.355 21.4448C36.4272 20.7588 36.4633 20.109 36.5355 19.4591C36.8965 19.4591 37.2214 19.4952 37.5825 19.5313C37.6186 18.9537 37.6908 18.3761 37.7269 17.7984C38.8821 17.6179 40.0735 17.4374 41.1927 17.2569C41.1566 18.0872 41.0844 18.9176 41.0483 19.748C41.5176 19.7841 41.9869 19.7841 42.4563 19.8202C42.4202 20.47 42.3841 21.1198 42.3841 21.8058C41.9147 21.7697 41.4093 21.7697 40.94 21.7336C40.9039 22.4195 40.8678 23.1416 40.8317 23.8636C40.7956 24.5857 40.7595 25.3077 40.7234 26.0297C40.6873 26.5713 40.9761 26.824 41.4815 26.8601C41.7342 26.8601 41.9508 26.824 42.1674 26.7518C42.1313 27.4377 42.0952 28.1237 42.0591 28.8457C41.662 28.954 41.0122 29.0623 40.254 29.0262Z" fill="white"/>
<path d="M30.9036 28.5569C31.1924 26.1742 31.4812 23.8636 31.7339 21.6253C31.9866 19.4591 32.2393 17.3652 32.4921 15.3074C33.6473 15.3796 34.8026 15.4518 35.9579 15.524C35.7774 17.5457 35.5608 19.6396 35.3802 21.8058C35.1636 24.008 34.947 26.3186 34.7304 28.6652C33.4668 28.6291 32.2032 28.593 30.9036 28.5569Z" fill="white"/>
<path d="M24.5136 28.5569C20.9755 28.4486 19.387 27.2933 19.9286 24.73C20.1452 23.6831 20.3257 22.6361 20.5423 21.5891C20.7589 20.5783 20.9394 19.5674 21.12 18.5927C22.3835 18.6649 23.611 18.7371 24.8746 18.8093C24.6941 19.8201 24.5136 20.831 24.3692 21.8419C24.1886 22.8888 24.0081 23.9358 23.8276 25.0189C23.7193 25.7409 24.1164 26.1741 24.9829 26.2102C25.3078 26.2102 25.6688 26.1741 25.9216 26.0658C26.1021 24.8022 26.3187 23.6109 26.4992 22.3834C26.6797 21.192 26.8602 20.0367 27.0407 18.8815C28.2682 18.9537 29.4957 19.0259 30.6871 19.062C30.5065 20.47 30.326 21.878 30.1455 23.322C29.965 24.8022 29.7484 26.3185 29.5679 27.8709C28.3043 28.3764 26.3909 28.6291 24.5136 28.5569Z" fill="white"/>
</svg>
